<svg version="1.1" viewBox="0.0 0.0 900.0 900.0" fill="none" stroke="none" stroke-linecap="square" stroke-miterlimit="10" xmlns:xlink="http://www.w3.org/1999/xlink" xmlns="http://www.w3.org/2000/svg"><clipPath id="p.0"><path d="m0 0l900.0 0l0 900.0l-900.0 0l0 -900.0z" clip-rule="nonzero"/></clipPath><g clip-path="url(#p.0)"><path fill="#000000" fill-opacity="0.0" d="m0 0l900.0 0l0 900.0l-900.0 0z" fill-rule="evenodd"/><g filter="url(#shadowFilter-p.1)"><use xlink:href="#p.1" transform="matrix(1.0 0.0 0.0 1.0 0.0 19.0)"/></g><defs><filter id="shadowFilter-p.1" filterUnits="userSpaceOnUse"><feGaussianBlur in="SourceAlpha" stdDeviation="24.5" result="blur"/><feComponentTransfer in="blur" color-interpolation-filters="sRGB"><feFuncR type="linear" slope="0" intercept="0.0"/><feFuncG type="linear" slope="0" intercept="0.0"/><feFuncB type="linear" slope="0" intercept="0.0"/><feFuncA type="linear" slope="0.88" intercept="0"/></feComponentTransfer></filter></defs><g id="p.1"><path fill="#ffffff" d="m166.1798 505.50656l25.167969 -0.90026855l24.044632 -4.2703247l16.181091 -4.4934387l10.335968 -4.270355l5.393692 -3.8188782l1.7978973 -3.8215332l-3.3700714 -3.3700867l-7.1916046 -1.5721741l-16.181107 -9.664032l-10.561676 -10.335968l-3.1443481 -4.496063l0.6719055 -2.6955261l4.496063 -1.5722046l6.9658813 -3.3726807l1.5721741 -3.5957947l-3.1443481 -4.2677307l-8.54068 -3.1469727l-16.629929 -9.212616l-15.503937 -13.482941l6.740158 -1.7978821l11.013123 -0.45144653l3.5931854 -2.6955566l0.22570801 -3.8215027l-2.4724274 -2.020996l-12.582687 -0.90026855l-22.249344 -7.4147034l-23.59317 -11.010498l-16.181107 -11.013123l13.034119 -3.1443481l15.506561 -4.7191772l5.8425293 -3.1469727l0.44880676 -3.8189087l-3.1469727 -2.246704l-14.157486 -2.0236206l-15.280838 -6.742798l23.372711 -5.842499l42.24672 -7.1889954l39.548553 -3.5957947l41.5748 -0.90026855l29.887146 1.5747986l11.461945 1.3464661l2.469818 -2.020996l-0.22311401 -3.1469727l-6.2939453 -3.5957947l-17.30185 -11.45932l26.740173 -1.5747986l21.574799 1.7978821l17.078735 2.4724426l8.314941 -3.1469727l16.404205 6.968506l24.94226 11.685028l26.51706 5.1679688l22.246735 5.3937073l11.013123 3.5957947l14.380554 1.1233826l26.742798 19.32544l26.065643 23.818909l35.50653 41.34909l16.629944 18.876617l20.6745 22.695557l15.055115 24.944885l18.876648 29.887146l12.585327 22.246704l1.3464355 6.968506l2.6981812 3.5932007l5.3910522 0.22570801l2.9238892 -3.5958252l2.020996 -13.257202l-1.123352 -36.629913l-6.291321 -35.055145l-13.708679 -39.551178l-31.236206 -92.136475l-17.527588 -46.740143l-6.0682373 -17.979004l-5.6167603 -25.616806l-2.6981812 -36.62993l-0.67456055 -28.538055l2.4724731 -29.438324l8.314941 -35.506554l11.010498 -24.94226l11.013123 -17.304459l17.078735 -20.000004l24.2677 -19.551178l22.472473 -14.6063l25.84253 -10.3359585l12.585266 -2.698162l14.606323 0.6745405l16.181091 5.1679792l22.921265 8.9895l24.49347 13.708662l18.650879 14.6063l15.955383 17.301838l10.338623 18.427818l3.1443481 17.75328l-1.5722046 16.404198l-7.86615 15.506569l13.708679 15.503937l17.078735 24.719162l17.97638 23.595795l1.5748291 9.438324l-4.0446167 5.842514l-7.4173584 2.2467194l-7.640442 -1.7978973l-6.0682373 -3.3700867l-4.719116 -8.089233l-19.774292 -16.40419l-29.438354 -20.225723l-33.48291 -19.774277l-58.65094 -27.191612l-16.629883 -2.472435l-17.97638 4.27034l-11.461975 12.808395l-7.414673 15.280838l-2.6981812 17.304474l-0.2230835 6.965866l1.123352 23.821533l9.212585 37.527557l14.157471 48.08925l11.685059 32.13385l16.181091 34.38321l17.30188 31.010498l18.876587 28.089233l30.561707 40.0l24.944885 34.15747l37.97638 61.57483l20.0 43.818848l15.729675 54.83203l4.2703247 40.0l-1.34906 27.640442l-8.538086 30.335938l-12.808411 29.438354l-11.684998 17.753235l-26.968506 27.417358l-27.640442 25.61676l-22.020996 17.97638l-14.157471 8.989502l-29.887146 9.4383545l-36.85565 6.0682373l-42.469788 3.5958252l-71.91077 1.123352l-81.79791 0.6744995l-60.90027 -0.90026855l-61.795288 -4.2703247l-30.338562 -7.188965l-37.97638 -16.629944l-28.763794 -18.427795l-27.19159 -22.472473l-19.776917 -22.469788l-23.59317 -28.989502l-18.204727 -31.461914l-16.178467 -39.099792l-5.167984 -14.157471l-11.685043 -20.448792l-14.157486 -16.181091l-16.40419 -12.13385l-34.3832 -25.16803l-38.65092 -29.438293l-13.482941 -15.7323l-10.56168 -16.404175l-5.619421 -12.359619l-1.5721798 -10.1102295l0.8976383 -11.236206l23.146982 10.561707l57.527557 22.695496l41.123367 12.585327l29.664032 8.089233l16.629929 3.5958252l14.154846 -0.67456055l4.0472565 -2.246704l2.4698029 -3.1469727l-2.2467194 -5.16803l-6.740158 -4.719116l-6.5170593 -5.8425293l-22.69815 -39.55121l-2.3937073 -4.3884277z" fill-rule="evenodd"/></g></g></svg>